<svg width="16" height="16" viewBox="0 0 16 16" fill="none" xmlns="http://www.w3.org/2000/svg">
<path d="M8.00001 2C8.27616 2 8.50001 2.22386 8.50001 2.5V6.33333H10.1636C11.1762 6.33333 11.997 7.15414 11.997 8.16667V12.2944L13.1467 11.1462C13.3421 10.9511 13.6587 10.9513 13.8538 11.1467C14.0489 11.3421 14.0487 11.6587 13.8533 11.8538L11.8503 13.8541C11.655 14.0492 11.3386 14.0491 11.1434 13.8539L9.14308 11.8536C8.94782 11.6583 8.94782 11.3417 9.14308 11.1464C9.33834 10.9512 9.65492 10.9512 9.85018 11.1464L10.997 12.2932V8.16667C10.997 7.70643 10.6239 7.33333 10.1636 7.33333H5.83328C5.37304 7.33333 4.99995 7.70643 4.99995 8.16667V12.2932L6.14673 11.1464C6.34199 10.9512 6.65858 10.9512 6.85384 11.1464C7.0491 11.3417 7.0491 11.6583 6.85384 11.8536L4.8535 13.8539C4.65824 14.0492 4.34166 14.0492 4.1464 13.8539L2.14602 11.8536C1.95076 11.6583 1.95076 11.3417 2.14602 11.1465C2.34128 10.9512 2.65786 10.9512 2.85312 11.1464L3.99995 12.2932V8.16667C3.99995 7.15414 4.82076 6.33333 5.83328 6.33333H7.50001V2.5C7.50001 2.22386 7.72387 2 8.00001 2Z" fill="white"/>
</svg>
